%TF.GenerationSoftware,KiCad,Pcbnew,(6.0.7)*%
%TF.CreationDate,2022-09-19T01:01:14-07:00*%
%TF.ProjectId,Intro Project Alex Aarhus,496e7472-6f20-4507-926f-6a6563742041,rev?*%
%TF.SameCoordinates,Original*%
%TF.FileFunction,Legend,Top*%
%TF.FilePolarity,Positive*%
%FSLAX46Y46*%
G04 Gerber Fmt 4.6, Leading zero omitted, Abs format (unit mm)*
G04 Created by KiCad (PCBNEW (6.0.7)) date 2022-09-19 01:01:14*
%MOMM*%
%LPD*%
G01*
G04 APERTURE LIST*
%ADD10C,0.150000*%
%ADD11C,0.120000*%
G04 APERTURE END LIST*
D10*
%TO.C,R2*%
X190062380Y-76366666D02*
X189586190Y-76700000D01*
X190062380Y-76938095D02*
X189062380Y-76938095D01*
X189062380Y-76557142D01*
X189110000Y-76461904D01*
X189157619Y-76414285D01*
X189252857Y-76366666D01*
X189395714Y-76366666D01*
X189490952Y-76414285D01*
X189538571Y-76461904D01*
X189586190Y-76557142D01*
X189586190Y-76938095D01*
X189157619Y-75985714D02*
X189110000Y-75938095D01*
X189062380Y-75842857D01*
X189062380Y-75604761D01*
X189110000Y-75509523D01*
X189157619Y-75461904D01*
X189252857Y-75414285D01*
X189348095Y-75414285D01*
X189490952Y-75461904D01*
X190062380Y-76033333D01*
X190062380Y-75414285D01*
%TO.C,D1*%
X171522380Y-71858095D02*
X170522380Y-71858095D01*
X170522380Y-71620000D01*
X170570000Y-71477142D01*
X170665238Y-71381904D01*
X170760476Y-71334285D01*
X170950952Y-71286666D01*
X171093809Y-71286666D01*
X171284285Y-71334285D01*
X171379523Y-71381904D01*
X171474761Y-71477142D01*
X171522380Y-71620000D01*
X171522380Y-71858095D01*
X171522380Y-70334285D02*
X171522380Y-70905714D01*
X171522380Y-70620000D02*
X170522380Y-70620000D01*
X170665238Y-70715238D01*
X170760476Y-70810476D01*
X170808095Y-70905714D01*
%TO.C,C1*%
X173503333Y-78745142D02*
X173455714Y-78792761D01*
X173312857Y-78840380D01*
X173217619Y-78840380D01*
X173074761Y-78792761D01*
X172979523Y-78697523D01*
X172931904Y-78602285D01*
X172884285Y-78411809D01*
X172884285Y-78268952D01*
X172931904Y-78078476D01*
X172979523Y-77983238D01*
X173074761Y-77888000D01*
X173217619Y-77840380D01*
X173312857Y-77840380D01*
X173455714Y-77888000D01*
X173503333Y-77935619D01*
X174455714Y-78840380D02*
X173884285Y-78840380D01*
X174170000Y-78840380D02*
X174170000Y-77840380D01*
X174074761Y-77983238D01*
X173979523Y-78078476D01*
X173884285Y-78126095D01*
%TO.C,R1*%
X190062380Y-71286666D02*
X189586190Y-71620000D01*
X190062380Y-71858095D02*
X189062380Y-71858095D01*
X189062380Y-71477142D01*
X189110000Y-71381904D01*
X189157619Y-71334285D01*
X189252857Y-71286666D01*
X189395714Y-71286666D01*
X189490952Y-71334285D01*
X189538571Y-71381904D01*
X189586190Y-71477142D01*
X189586190Y-71858095D01*
X190062380Y-70334285D02*
X190062380Y-70905714D01*
X190062380Y-70620000D02*
X189062380Y-70620000D01*
X189205238Y-70715238D01*
X189300476Y-70810476D01*
X189348095Y-70905714D01*
%TO.C,BT1*%
X204048571Y-74445714D02*
X204096190Y-74302857D01*
X204143809Y-74255238D01*
X204239047Y-74207619D01*
X204381904Y-74207619D01*
X204477142Y-74255238D01*
X204524761Y-74302857D01*
X204572380Y-74398095D01*
X204572380Y-74779047D01*
X203572380Y-74779047D01*
X203572380Y-74445714D01*
X203620000Y-74350476D01*
X203667619Y-74302857D01*
X203762857Y-74255238D01*
X203858095Y-74255238D01*
X203953333Y-74302857D01*
X204000952Y-74350476D01*
X204048571Y-74445714D01*
X204048571Y-74779047D01*
X203572380Y-73921904D02*
X203572380Y-73350476D01*
X204572380Y-73636190D02*
X203572380Y-73636190D01*
X204572380Y-72493333D02*
X204572380Y-73064761D01*
X204572380Y-72779047D02*
X203572380Y-72779047D01*
X203715238Y-72874285D01*
X203810476Y-72969523D01*
X203858095Y-73064761D01*
%TO.C,C2*%
X181763333Y-81637142D02*
X181715714Y-81684761D01*
X181572857Y-81732380D01*
X181477619Y-81732380D01*
X181334761Y-81684761D01*
X181239523Y-81589523D01*
X181191904Y-81494285D01*
X181144285Y-81303809D01*
X181144285Y-81160952D01*
X181191904Y-80970476D01*
X181239523Y-80875238D01*
X181334761Y-80780000D01*
X181477619Y-80732380D01*
X181572857Y-80732380D01*
X181715714Y-80780000D01*
X181763333Y-80827619D01*
X182144285Y-80827619D02*
X182191904Y-80780000D01*
X182287142Y-80732380D01*
X182525238Y-80732380D01*
X182620476Y-80780000D01*
X182668095Y-80827619D01*
X182715714Y-80922857D01*
X182715714Y-81018095D01*
X182668095Y-81160952D01*
X182096666Y-81732380D01*
X182715714Y-81732380D01*
%TO.C,U1*%
X179578095Y-76512380D02*
X179578095Y-77321904D01*
X179625714Y-77417142D01*
X179673333Y-77464761D01*
X179768571Y-77512380D01*
X179959047Y-77512380D01*
X180054285Y-77464761D01*
X180101904Y-77417142D01*
X180149523Y-77321904D01*
X180149523Y-76512380D01*
X181149523Y-77512380D02*
X180578095Y-77512380D01*
X180863809Y-77512380D02*
X180863809Y-76512380D01*
X180768571Y-76655238D01*
X180673333Y-76750476D01*
X180578095Y-76798095D01*
%TO.C,BT2*%
X168488571Y-74445714D02*
X168536190Y-74302857D01*
X168583809Y-74255238D01*
X168679047Y-74207619D01*
X168821904Y-74207619D01*
X168917142Y-74255238D01*
X168964761Y-74302857D01*
X169012380Y-74398095D01*
X169012380Y-74779047D01*
X168012380Y-74779047D01*
X168012380Y-74445714D01*
X168060000Y-74350476D01*
X168107619Y-74302857D01*
X168202857Y-74255238D01*
X168298095Y-74255238D01*
X168393333Y-74302857D01*
X168440952Y-74350476D01*
X168488571Y-74445714D01*
X168488571Y-74779047D01*
X168012380Y-73921904D02*
X168012380Y-73350476D01*
X169012380Y-73636190D02*
X168012380Y-73636190D01*
X168107619Y-73064761D02*
X168060000Y-73017142D01*
X168012380Y-72921904D01*
X168012380Y-72683809D01*
X168060000Y-72588571D01*
X168107619Y-72540952D01*
X168202857Y-72493333D01*
X168298095Y-72493333D01*
X168440952Y-72540952D01*
X169012380Y-73112380D01*
X169012380Y-72493333D01*
D11*
%TO.C,R2*%
X187225000Y-75972936D02*
X187225000Y-76427064D01*
X188695000Y-75972936D02*
X188695000Y-76427064D01*
%TO.C,D1*%
X171760000Y-72805000D02*
X173680000Y-72805000D01*
X171760000Y-70120000D02*
X171760000Y-72805000D01*
X173680000Y-72805000D02*
X173680000Y-70120000D01*
%TO.C,C1*%
X173931252Y-75973000D02*
X173408748Y-75973000D01*
X173931252Y-77443000D02*
X173408748Y-77443000D01*
%TO.C,R1*%
X187225000Y-70892936D02*
X187225000Y-71347064D01*
X188695000Y-70892936D02*
X188695000Y-71347064D01*
%TO.C,BT1*%
X195370000Y-80210000D02*
X193720000Y-78560000D01*
X193720000Y-68760000D02*
X193720000Y-70660000D01*
X200970000Y-67110000D02*
X202320000Y-68260000D01*
X193720000Y-78560000D02*
X193720000Y-76660000D01*
X193720000Y-68760000D02*
X195370000Y-67110000D01*
X200970000Y-80210000D02*
X202320000Y-79060000D01*
X202320000Y-79060000D02*
G75*
G03*
X202817607Y-76164098I-1800000J1800000D01*
G01*
X202816459Y-71158306D02*
G75*
G03*
X202320000Y-68260000I-2296459J1098306D01*
G01*
%TO.C,C2*%
X181668748Y-79475000D02*
X182191252Y-79475000D01*
X181668748Y-78005000D02*
X182191252Y-78005000D01*
%TO.C,U1*%
X180340000Y-71100000D02*
X182290000Y-71100000D01*
X180340000Y-76220000D02*
X178390000Y-76220000D01*
X180340000Y-71100000D02*
X178390000Y-71100000D01*
X180340000Y-76220000D02*
X183790000Y-76220000D01*
%TO.C,BT2*%
X159810000Y-80210000D02*
X158160000Y-78560000D01*
X165410000Y-67110000D02*
X166760000Y-68260000D01*
X158160000Y-78560000D02*
X158160000Y-76660000D01*
X158160000Y-68760000D02*
X158160000Y-70660000D01*
X158160000Y-68760000D02*
X159810000Y-67110000D01*
X165410000Y-80210000D02*
X166760000Y-79060000D01*
X166760000Y-79060000D02*
G75*
G03*
X167257607Y-76164098I-1800000J1800000D01*
G01*
X167256459Y-71158306D02*
G75*
G03*
X166760000Y-68260000I-2296459J1098306D01*
G01*
%TD*%
M02*
