%TF.GenerationSoftware,KiCad,Pcbnew,(6.0.7)*%
%TF.CreationDate,2022-09-19T01:01:13-07:00*%
%TF.ProjectId,Intro Project Alex Aarhus,496e7472-6f20-4507-926f-6a6563742041,rev?*%
%TF.SameCoordinates,Original*%
%TF.FileFunction,Copper,L1,Top*%
%TF.FilePolarity,Positive*%
%FSLAX46Y46*%
G04 Gerber Fmt 4.6, Leading zero omitted, Abs format (unit mm)*
G04 Created by KiCad (PCBNEW (6.0.7)) date 2022-09-19 01:01:13*
%MOMM*%
%LPD*%
G01*
G04 APERTURE LIST*
G04 Aperture macros list*
%AMRoundRect*
0 Rectangle with rounded corners*
0 $1 Rounding radius*
0 $2 $3 $4 $5 $6 $7 $8 $9 X,Y pos of 4 corners*
0 Add a 4 corners polygon primitive as box body*
4,1,4,$2,$3,$4,$5,$6,$7,$8,$9,$2,$3,0*
0 Add four circle primitives for the rounded corners*
1,1,$1+$1,$2,$3*
1,1,$1+$1,$4,$5*
1,1,$1+$1,$6,$7*
1,1,$1+$1,$8,$9*
0 Add four rect primitives between the rounded corners*
20,1,$1+$1,$2,$3,$4,$5,0*
20,1,$1+$1,$4,$5,$6,$7,0*
20,1,$1+$1,$6,$7,$8,$9,0*
20,1,$1+$1,$8,$9,$2,$3,0*%
G04 Aperture macros list end*
%ADD10C,0.300000*%
%TA.AperFunction,NonConductor*%
%ADD11C,0.300000*%
%TD*%
%TA.AperFunction,SMDPad,CuDef*%
%ADD12RoundRect,0.250000X-0.450000X0.262500X-0.450000X-0.262500X0.450000X-0.262500X0.450000X0.262500X0*%
%TD*%
%TA.AperFunction,SMDPad,CuDef*%
%ADD13RoundRect,0.243750X0.456250X-0.243750X0.456250X0.243750X-0.456250X0.243750X-0.456250X-0.243750X0*%
%TD*%
%TA.AperFunction,SMDPad,CuDef*%
%ADD14RoundRect,0.250000X0.250000X0.475000X-0.250000X0.475000X-0.250000X-0.475000X0.250000X-0.475000X0*%
%TD*%
%TA.AperFunction,SMDPad,CuDef*%
%ADD15R,5.100000X2.500000*%
%TD*%
%TA.AperFunction,SMDPad,CuDef*%
%ADD16C,10.200000*%
%TD*%
%TA.AperFunction,SMDPad,CuDef*%
%ADD17RoundRect,0.250000X-0.250000X-0.475000X0.250000X-0.475000X0.250000X0.475000X-0.250000X0.475000X0*%
%TD*%
%TA.AperFunction,SMDPad,CuDef*%
%ADD18RoundRect,0.150000X0.825000X0.150000X-0.825000X0.150000X-0.825000X-0.150000X0.825000X-0.150000X0*%
%TD*%
%TA.AperFunction,ViaPad*%
%ADD19C,0.800000*%
%TD*%
%TA.AperFunction,Conductor*%
%ADD20C,0.250000*%
%TD*%
G04 APERTURE END LIST*
D10*
D11*
X168375714Y-63558500D02*
X169090000Y-63558500D01*
X168232857Y-63987071D02*
X168732857Y-62487071D01*
X169232857Y-63987071D01*
X169590000Y-62987071D02*
X169947142Y-63987071D01*
X170304285Y-62987071D01*
X170875714Y-63987071D02*
X170875714Y-62987071D01*
X170875714Y-62487071D02*
X170804285Y-62558500D01*
X170875714Y-62629928D01*
X170947142Y-62558500D01*
X170875714Y-62487071D01*
X170875714Y-62629928D01*
X171804285Y-63987071D02*
X171661428Y-63915642D01*
X171590000Y-63844214D01*
X171518571Y-63701357D01*
X171518571Y-63272785D01*
X171590000Y-63129928D01*
X171661428Y-63058500D01*
X171804285Y-62987071D01*
X172018571Y-62987071D01*
X172161428Y-63058500D01*
X172232857Y-63129928D01*
X172304285Y-63272785D01*
X172304285Y-63701357D01*
X172232857Y-63844214D01*
X172161428Y-63915642D01*
X172018571Y-63987071D01*
X171804285Y-63987071D01*
X172947142Y-62987071D02*
X172947142Y-63987071D01*
X172947142Y-63129928D02*
X173018571Y-63058500D01*
X173161428Y-62987071D01*
X173375714Y-62987071D01*
X173518571Y-63058500D01*
X173590000Y-63201357D01*
X173590000Y-63987071D01*
X174304285Y-63987071D02*
X174304285Y-62987071D01*
X174304285Y-62487071D02*
X174232857Y-62558500D01*
X174304285Y-62629928D01*
X174375714Y-62558500D01*
X174304285Y-62487071D01*
X174304285Y-62629928D01*
X175661428Y-63915642D02*
X175518571Y-63987071D01*
X175232857Y-63987071D01*
X175090000Y-63915642D01*
X175018571Y-63844214D01*
X174947142Y-63701357D01*
X174947142Y-63272785D01*
X175018571Y-63129928D01*
X175090000Y-63058500D01*
X175232857Y-62987071D01*
X175518571Y-62987071D01*
X175661428Y-63058500D01*
X176232857Y-63915642D02*
X176375714Y-63987071D01*
X176661428Y-63987071D01*
X176804285Y-63915642D01*
X176875714Y-63772785D01*
X176875714Y-63701357D01*
X176804285Y-63558500D01*
X176661428Y-63487071D01*
X176447142Y-63487071D01*
X176304285Y-63415642D01*
X176232857Y-63272785D01*
X176232857Y-63201357D01*
X176304285Y-63058500D01*
X176447142Y-62987071D01*
X176661428Y-62987071D01*
X176804285Y-63058500D01*
X178661428Y-63987071D02*
X178661428Y-62487071D01*
X179375714Y-62987071D02*
X179375714Y-63987071D01*
X179375714Y-63129928D02*
X179447142Y-63058500D01*
X179590000Y-62987071D01*
X179804285Y-62987071D01*
X179947142Y-63058500D01*
X180018571Y-63201357D01*
X180018571Y-63987071D01*
X180518571Y-62987071D02*
X181090000Y-62987071D01*
X180732857Y-62487071D02*
X180732857Y-63772785D01*
X180804285Y-63915642D01*
X180947142Y-63987071D01*
X181090000Y-63987071D01*
X181590000Y-63987071D02*
X181590000Y-62987071D01*
X181590000Y-63272785D02*
X181661428Y-63129928D01*
X181732857Y-63058500D01*
X181875714Y-62987071D01*
X182018571Y-62987071D01*
X182732857Y-63987071D02*
X182590000Y-63915642D01*
X182518571Y-63844214D01*
X182447142Y-63701357D01*
X182447142Y-63272785D01*
X182518571Y-63129928D01*
X182590000Y-63058500D01*
X182732857Y-62987071D01*
X182947142Y-62987071D01*
X183090000Y-63058500D01*
X183161428Y-63129928D01*
X183232857Y-63272785D01*
X183232857Y-63701357D01*
X183161428Y-63844214D01*
X183090000Y-63915642D01*
X182947142Y-63987071D01*
X182732857Y-63987071D01*
X185018571Y-63987071D02*
X185018571Y-62487071D01*
X185590000Y-62487071D01*
X185732857Y-62558500D01*
X185804285Y-62629928D01*
X185875714Y-62772785D01*
X185875714Y-62987071D01*
X185804285Y-63129928D01*
X185732857Y-63201357D01*
X185590000Y-63272785D01*
X185018571Y-63272785D01*
X186518571Y-63987071D02*
X186518571Y-62987071D01*
X186518571Y-63272785D02*
X186590000Y-63129928D01*
X186661428Y-63058500D01*
X186804285Y-62987071D01*
X186947142Y-62987071D01*
X187661428Y-63987071D02*
X187518571Y-63915642D01*
X187447142Y-63844214D01*
X187375714Y-63701357D01*
X187375714Y-63272785D01*
X187447142Y-63129928D01*
X187518571Y-63058500D01*
X187661428Y-62987071D01*
X187875714Y-62987071D01*
X188018571Y-63058500D01*
X188090000Y-63129928D01*
X188161428Y-63272785D01*
X188161428Y-63701357D01*
X188090000Y-63844214D01*
X188018571Y-63915642D01*
X187875714Y-63987071D01*
X187661428Y-63987071D01*
X188804285Y-62987071D02*
X188804285Y-64272785D01*
X188732857Y-64415642D01*
X188590000Y-64487071D01*
X188518571Y-64487071D01*
X188804285Y-62487071D02*
X188732857Y-62558500D01*
X188804285Y-62629928D01*
X188875714Y-62558500D01*
X188804285Y-62487071D01*
X188804285Y-62629928D01*
X190090000Y-63915642D02*
X189947142Y-63987071D01*
X189661428Y-63987071D01*
X189518571Y-63915642D01*
X189447142Y-63772785D01*
X189447142Y-63201357D01*
X189518571Y-63058500D01*
X189661428Y-62987071D01*
X189947142Y-62987071D01*
X190090000Y-63058500D01*
X190161428Y-63201357D01*
X190161428Y-63344214D01*
X189447142Y-63487071D01*
X191447142Y-63915642D02*
X191304285Y-63987071D01*
X191018571Y-63987071D01*
X190875714Y-63915642D01*
X190804285Y-63844214D01*
X190732857Y-63701357D01*
X190732857Y-63272785D01*
X190804285Y-63129928D01*
X190875714Y-63058500D01*
X191018571Y-62987071D01*
X191304285Y-62987071D01*
X191447142Y-63058500D01*
X191875714Y-62987071D02*
X192447142Y-62987071D01*
X192090000Y-62487071D02*
X192090000Y-63772785D01*
X192161428Y-63915642D01*
X192304285Y-63987071D01*
X192447142Y-63987071D01*
X174018571Y-65973500D02*
X174732857Y-65973500D01*
X173875714Y-66402071D02*
X174375714Y-64902071D01*
X174875714Y-66402071D01*
X175590000Y-66402071D02*
X175447142Y-66330642D01*
X175375714Y-66187785D01*
X175375714Y-64902071D01*
X176732857Y-66330642D02*
X176590000Y-66402071D01*
X176304285Y-66402071D01*
X176161428Y-66330642D01*
X176090000Y-66187785D01*
X176090000Y-65616357D01*
X176161428Y-65473500D01*
X176304285Y-65402071D01*
X176590000Y-65402071D01*
X176732857Y-65473500D01*
X176804285Y-65616357D01*
X176804285Y-65759214D01*
X176090000Y-65902071D01*
X177304285Y-66402071D02*
X178090000Y-65402071D01*
X177304285Y-65402071D02*
X178090000Y-66402071D01*
X179732857Y-65973500D02*
X180447142Y-65973500D01*
X179590000Y-66402071D02*
X180090000Y-64902071D01*
X180590000Y-66402071D01*
X181732857Y-66402071D02*
X181732857Y-65616357D01*
X181661428Y-65473500D01*
X181518571Y-65402071D01*
X181232857Y-65402071D01*
X181090000Y-65473500D01*
X181732857Y-66330642D02*
X181590000Y-66402071D01*
X181232857Y-66402071D01*
X181090000Y-66330642D01*
X181018571Y-66187785D01*
X181018571Y-66044928D01*
X181090000Y-65902071D01*
X181232857Y-65830642D01*
X181590000Y-65830642D01*
X181732857Y-65759214D01*
X182447142Y-66402071D02*
X182447142Y-65402071D01*
X182447142Y-65687785D02*
X182518571Y-65544928D01*
X182590000Y-65473500D01*
X182732857Y-65402071D01*
X182875714Y-65402071D01*
X183375714Y-66402071D02*
X183375714Y-64902071D01*
X184018571Y-66402071D02*
X184018571Y-65616357D01*
X183947142Y-65473500D01*
X183804285Y-65402071D01*
X183590000Y-65402071D01*
X183447142Y-65473500D01*
X183375714Y-65544928D01*
X185375714Y-65402071D02*
X185375714Y-66402071D01*
X184732857Y-65402071D02*
X184732857Y-66187785D01*
X184804285Y-66330642D01*
X184947142Y-66402071D01*
X185161428Y-66402071D01*
X185304285Y-66330642D01*
X185375714Y-66259214D01*
X186018571Y-66330642D02*
X186161428Y-66402071D01*
X186447142Y-66402071D01*
X186590000Y-66330642D01*
X186661428Y-66187785D01*
X186661428Y-66116357D01*
X186590000Y-65973500D01*
X186447142Y-65902071D01*
X186232857Y-65902071D01*
X186090000Y-65830642D01*
X186018571Y-65687785D01*
X186018571Y-65616357D01*
X186090000Y-65473500D01*
X186232857Y-65402071D01*
X186447142Y-65402071D01*
X186590000Y-65473500D01*
D12*
%TO.P,R2,1*%
%TO.N,Net-(R1-Pad2)*%
X187960000Y-75287500D03*
%TO.P,R2,2*%
%TO.N,Net-(C2-Pad2)*%
X187960000Y-77112500D03*
%TD*%
D13*
%TO.P,D1,1,K*%
%TO.N,GND*%
X172720000Y-72057500D03*
%TO.P,D1,2,A*%
%TO.N,Net-(D1-Pad2)*%
X172720000Y-70182500D03*
%TD*%
D14*
%TO.P,C1,1*%
%TO.N,Net-(C1-Pad1)*%
X174620000Y-76708000D03*
%TO.P,C1,2*%
%TO.N,GND*%
X172720000Y-76708000D03*
%TD*%
D12*
%TO.P,R1,1*%
%TO.N,VCC*%
X187960000Y-70207500D03*
%TO.P,R1,2*%
%TO.N,Net-(R1-Pad2)*%
X187960000Y-72032500D03*
%TD*%
D15*
%TO.P,BT1,1,+*%
%TO.N,VCC*%
X198120000Y-66060000D03*
X198120000Y-81260000D03*
D16*
%TO.P,BT1,2,-*%
%TO.N,Net-(BT1-Pad2)*%
X198120000Y-73660000D03*
%TD*%
D17*
%TO.P,C2,1*%
%TO.N,GND*%
X180980000Y-78740000D03*
%TO.P,C2,2*%
%TO.N,Net-(C2-Pad2)*%
X182880000Y-78740000D03*
%TD*%
D18*
%TO.P,U1,1,GND*%
%TO.N,GND*%
X182815000Y-75565000D03*
%TO.P,U1,2,TR*%
%TO.N,Net-(C2-Pad2)*%
X182815000Y-74295000D03*
%TO.P,U1,3,Q*%
%TO.N,Net-(D1-Pad2)*%
X182815000Y-73025000D03*
%TO.P,U1,4,R*%
%TO.N,VCC*%
X182815000Y-71755000D03*
%TO.P,U1,5,CV*%
%TO.N,Net-(C1-Pad1)*%
X177865000Y-71755000D03*
%TO.P,U1,6,THR*%
%TO.N,Net-(C2-Pad2)*%
X177865000Y-73025000D03*
%TO.P,U1,7,DIS*%
%TO.N,Net-(R1-Pad2)*%
X177865000Y-74295000D03*
%TO.P,U1,8,VCC*%
%TO.N,VCC*%
X177865000Y-75565000D03*
%TD*%
D15*
%TO.P,BT2,1,+*%
%TO.N,Net-(BT1-Pad2)*%
X162560000Y-81260000D03*
X162560000Y-66060000D03*
D16*
%TO.P,BT2,2,-*%
%TO.N,GND*%
X162560000Y-73660000D03*
%TD*%
D19*
%TO.N,Net-(D1-Pad2)*%
X185420000Y-71120000D03*
X185420000Y-68580000D03*
%TD*%
D20*
%TO.N,VCC*%
X184362500Y-70207500D02*
X187960000Y-70207500D01*
X176851853Y-75565000D02*
X175710000Y-74423147D01*
X175710000Y-74423147D02*
X175710000Y-73533249D01*
X187960000Y-70207500D02*
X192107500Y-66060000D01*
X203545000Y-77135000D02*
X203545000Y-68925000D01*
X198120000Y-66060000D02*
X192107500Y-66060000D01*
X175710000Y-73533249D02*
X176863249Y-72380000D01*
X198120000Y-81260000D02*
X199420000Y-81260000D01*
X200680000Y-66060000D02*
X198120000Y-66060000D01*
X203545000Y-68925000D02*
X200680000Y-66060000D01*
X182190000Y-72380000D02*
X182815000Y-71755000D01*
X176863249Y-72380000D02*
X182190000Y-72380000D01*
X199420000Y-81260000D02*
X203545000Y-77135000D01*
X177865000Y-75565000D02*
X176851853Y-75565000D01*
X182815000Y-71755000D02*
X184362500Y-70207500D01*
%TO.N,Net-(R1-Pad2)*%
X186332500Y-73660000D02*
X187960000Y-75287500D01*
X177865000Y-74295000D02*
X178500000Y-73660000D01*
X178500000Y-73660000D02*
X186332500Y-73660000D01*
X187960000Y-73660000D02*
X187960000Y-72032500D01*
X187960000Y-75287500D02*
X187960000Y-73660000D01*
%TO.N,Net-(C2-Pad2)*%
X183515000Y-74295000D02*
X186332500Y-77112500D01*
X182815000Y-74295000D02*
X183515000Y-74295000D01*
X177865000Y-73025000D02*
X177488249Y-73025000D01*
X184507500Y-77112500D02*
X186332500Y-77112500D01*
X182170000Y-74940000D02*
X182815000Y-74295000D01*
X186332500Y-77112500D02*
X187960000Y-77112500D01*
X177488249Y-73025000D02*
X176565000Y-73948249D01*
X182880000Y-78740000D02*
X184507500Y-77112500D01*
X176863249Y-74940000D02*
X182170000Y-74940000D01*
X176565000Y-74641751D02*
X176863249Y-74940000D01*
X176565000Y-73948249D02*
X176565000Y-74641751D01*
%TO.N,GND*%
X172720000Y-72057500D02*
X171117500Y-73660000D01*
X180980000Y-78740000D02*
X174752000Y-78740000D01*
X174752000Y-78740000D02*
X172720000Y-76708000D01*
X172720000Y-76708000D02*
X172720000Y-72057500D01*
X182815000Y-76905000D02*
X180980000Y-78740000D01*
X182815000Y-75565000D02*
X182815000Y-76905000D01*
X171117500Y-73660000D02*
X162560000Y-73660000D01*
%TO.N,Net-(D1-Pad2)*%
X174322500Y-68580000D02*
X185420000Y-68580000D01*
X183515000Y-73025000D02*
X182815000Y-73025000D01*
X183515000Y-73025000D02*
X185420000Y-71120000D01*
X172720000Y-70182500D02*
X174322500Y-68580000D01*
%TO.N,Net-(C1-Pad1)*%
X174620000Y-73030000D02*
X175895000Y-71755000D01*
X174620000Y-76708000D02*
X174620000Y-73030000D01*
X175895000Y-71755000D02*
X177865000Y-71755000D01*
%TO.N,Net-(BT1-Pad2)*%
X162560000Y-81260000D02*
X190520000Y-81260000D01*
X160000000Y-81260000D02*
X162560000Y-81260000D01*
X157135000Y-70185000D02*
X157135000Y-78395000D01*
X162560000Y-66060000D02*
X161260000Y-66060000D01*
X161260000Y-66060000D02*
X157135000Y-70185000D01*
X157135000Y-78395000D02*
X160000000Y-81260000D01*
X190520000Y-81260000D02*
X198120000Y-73660000D01*
%TD*%
M02*
